# xmcd CD database file
#
# Track frame offsets:
#	150
#	19472
#	38573
#	53599
#	69442
#	85909
#	99490
#	114591
#	130515
#	146909
#	163741
#	180622
#	196848
#	211642
#	224852
#	243555
#	258438
#	272357
#	286856
#	301638
#	318857
#
# Disc length: 4460 seconds
#
# Revision: 5
# Processed by: cddbd v1.5.2PL0 Copyright (c) Steve Scherf et al.
# Submitted via: CDex 1.70beta2
#
DISCID=26116a15
DTITLE=Various Artist - Bravo Hits 58 - CD1
DYEAR=2007
DGENRE=Pop
TTITLE0=Fergie - Big Girls Don't Cry (Personal) [Radio Edit]
TTITLE1=Gwen Stefani - 4 In The Morning [Radio Edit]
TTITLE2=Timbaland feat. Keri Hilson - The Way I Are
TTITLE3=Monrose - Hot Summer
TTITLE4=Enrique Iglesias - Do You Know? (The Ping Pong Song)
TTITLE5=Marquess - Vayamos compañneros [Radio Edit]
TTITLE6=Beyoncé and Shakira - Beautiful Liar
TTITLE7=David Bisbal - Silencio
TTITLE8=Mark Medlock and Dieter Bohlen - You Can Get It
TTITLE9=Mika - Relax, Take It Easy
TTITLE10=Darin - Insanity
TTITLE11=Befour - Magic Melody
TTITLE12=Hot Banditoz - Que si, que no
TTITLE13=Belle Perez - El mundo bilando
TTITLE14=US5 - Rhythm Of Life
TTITLE15=Lemon Ice - Girl You Know It's True
TTITLE16=Lumidee feat. Pitbull - Crazy
TTITLE17=Wally Warning - No Monkey
TTITLE18=Bob Sinclair - Sound of Freedom
TTITLE19=The Disco Boys - I Love You So
TTITLE20=Peter Gelderblom - Waiting For
EXTD=YEAR: 2007
EXTT0=
EXTT1=
EXTT2=
EXTT3=
EXTT4=
EXTT5=
EXTT6=
EXTT7=
EXTT8=
EXTT9=
EXTT10=
EXTT11=
EXTT12=
EXTT13=
EXTT14=
EXTT15=
EXTT16=
EXTT17=
EXTT18=
EXTT19=
EXTT20=
PLAYORDER=
